#!OML:ASF F:\VICON\USERDATA\INSTALL\rory3\rory3.ASF
:FULLY-SPECIFIED
:DEGREES


286
root 0.17477 17.9454 24.9035 -4.34828 2.93501 -4.46748
lowerback 10.8155 -0.941077 2.07038
upperback 0.685799 -0.810956 3.31121
thorax -5.33509 -0.409571 2.42499
lowerneck -15.2025 -2.7084 -1.91198
upperneck 21.439 -3.43417 0.574354
head 9.30369 -1.69544 0.0899042
rclavicle 1.81391e-015 -2.62396e-014
rhumerus -35.8713 -29.3502 -70.54
rradius 19.579
rwrist 12.9462
rhand -17.3805 24.6994
rfingers 7.12502
rthumb 8.86818 -5.0943
lclavicle 1.81391e-015 -2.62396e-014
lhumerus -26.4369 0.0213331 85.3984
lradius 30.1424
lwrist 2.61218
lhand -30.2067 22.6171
lfingers 7.12502
lthumb -3.51705 52.5678
rfemur -16.1049 4.06324 31.2353
rtibia 33.1309
rfoot -9.58003 -6.47978
rtoes 12.1027
lfemur -8.62785 1.0086 -14.2567
ltibia 69.2672
lfoot 4.1766 -13.4954
ltoes -4.51474
287
root 0.162713 17.9609 25.0818 -4.40075 2.67285 -4.56258
lowerback 10.8223 -0.784955 2.097
upperback 0.687403 -0.60243 3.26741
thorax -5.34329 -0.307996 2.33215
lowerneck -14.8971 -2.73974 -1.76656
upperneck 21.2565 -3.50472 0.518756
head 9.18045 -1.72466 0.0438395
rclavicle 9.92681e-015 -4.6118e-014
rhumerus -35.2776 -28.4434 -71.4005
rradius 20.0655
rwrist 12.4225
rhand -17.1817 24.2865
rfingers 7.12502
rthumb 9.06005 -5.49895
lclavicle 9.92681e-015 -4.6118e-014
lhumerus -26.7719 0.415721 85.1917
lradius 29.8426
lwrist 2.31912
lhand -30.9721 23.6994
lfingers 7.12502
lthumb -4.25624 53.6366
rfemur -15.153 4.331 31.5181
rtibia 32.7072
rfoot -9.90993 -6.6659
rtoes 11.3407
lfemur -9.96249 1.57635 -14.0203
ltibia 70.15
lfoot 3.67572 -12.6598
ltoes -4.25116
288
root 0.161921 17.9767 25.2585 -4.54597 2.43596 -4.63206
lowerback 10.8353 -0.681749 2.2498
upperback 0.694498 -0.450974 3.18449
thorax -5.34861 -0.237995 2.13569
lowerneck -14.3788 -2.75108 -1.67867
upperneck 21.048 -3.54997 0.523862
head 9.0113 -1.74144 0.0348479
rclavicle 1.77664e-015 1.31198e-014
rhumerus -34.7695 -28.0061 -71.9515
rradius 20.2212
rwrist 12.3346
rhand -17.3818 22.7986
rfingers 7.12502
rthumb 8.86689 -6.99513
lclavicle 1.77664e-015 1.31198e-014
lhumerus -27.1436 0.758616 84.9884
lradius 29.7548
lwrist 2.59846
lhand -30.8826 27.1176
lfingers 7.12502
lthumb -4.16973 57.0565
rfemur -14.1019 4.44836 31.7288
rtibia 32.3808
rfoot -10.3848 -6.7401
rtoes 10.7825
lfemur -10.9904 1.98304 -13.897
ltibia 70.782
lfoot 2.52556 -11.7316
ltoes -6.71569
289
root 0.166988 17.9905 25.431 -4.53343 2.17036 -4.75054
lowerback 10.6789 -0.550047 2.52964
upperback 0.769002 -0.256779 3.10432
thorax -5.18816 -0.149285 1.86033
lowerneck -14.4457 -2.79505 -1.71217
upperneck 21.1707 -3.6321 0.647676
head 9.07016 -1.76817 0.0706629
rclavicle 2.93207e-015 2.54444e-014
rhumerus -33.9514 -27.9598 -72.4548
rradius 20.0648
rwrist 12.4508
rhand -17.7338 22.5566
rfingers 7.12502
rthumb 8.52727 -7.25118
lclavicle 2.93207e-015 2.54444e-014
lhumerus -27.3093 1.09194 84.7997
lradius 29.3032
lwrist 2.46055
lhand -30.3994 26.227
lfingers 7.12502
lthumb -3.70313 56.1746
rfemur -13.3568 4.41481 31.9463
rtibia 32.2388
rfoot -10.9409 -6.64623
rtoes 10.4512
lfemur -12.2474 2.40195 -13.779
ltibia 71.2059
lfoot 1.59225 -10.5603
ltoes -8.77547
290
root 0.169374 18.0045 25.6056 -4.29013 1.9488 -4.54357
lowerback 10.2858 -0.409702 2.45083
upperback 0.859657 -0.109808 2.95129
thorax -4.87488 -0.0754936 1.71598
lowerneck -14.8207 -2.83209 -1.71182
upperneck 21.3201 -3.69205 0.703284
head 9.19321 -1.78724 0.0754327
rclavicle 1.93567e-014 -2.10712e-014
rhumerus -33.0087 -27.7463 -73.0732
rradius 20.0039
rwrist 12.3939
rhand -18.2118 23.2171
rfingers 7.12502
rthumb 8.0659 -6.60896
lclavicle 1.93567e-014 -2.10712e-014
lhumerus -27.3517 1.27508 84.6443
lradius 28.8582
lwrist 2.96225
lhand -30.2968 26.1701
lfingers 7.12502
lthumb -3.60409 56.1194
rfemur -12.8708 4.4222 31.7827
rtibia 32.1208
rfoot -11.4924 -6.47833
rtoes 10.5978
lfemur -13.7598 2.73148 -14.098
ltibia 71.426
lfoot 1.26512 -9.6609
ltoes -7.78609
291
root 0.167193 18.0122 25.7792 -4.10813 1.74387 -4.23533
lowerback 9.93923 -0.28289 2.1378
upperback 0.875971 0.000782566 2.81652
thorax -4.66492 -0.0151962 1.73166
lowerneck -14.5667 -2.82799 -1.71413
upperneck 21.0631 -3.68989 0.72064
head 9.05766 -1.78687 0.0878261
rclavicle -5.65294e-015 -3.18055e-015
rhumerus -32.3117 -26.4388 -73.9991
rradius 20.4857
rwrist 11.0775
rhand -18.0647 23.368
rfingers 7.12502
rthumb 8.20793 -6.45256
lclavicle -5.65294e-015 -3.18055e-015
lhumerus -27.6994 1.50674 84.4488
lradius 28.6225
lwrist 3.60287
lhand -29.5803 25.504
lfingers 7.12502
lthumb -2.91213 55.4639
rfemur -12.3099 4.49888 31.5386
rtibia 31.9862
rfoot -11.9709 -6.42088
rtoes 10.6715
lfemur -15.1184 3.02066 -14.4971
ltibia 71.4686
lfoot 0.870753 -9.02212
ltoes -5.58904
292
root 0.161362 18.0156 25.9541 -4.17326 1.37576 -4.42424
lowerback 9.92857 -0.0903716 2.38857
upperback 0.811681 0.282957 2.74844
thorax -4.72872 0.118151 1.48075
lowerneck -14.16 -2.94087 -1.80703
upperneck 21.0433 -3.8703 0.888097
head 8.98379 -1.86305 0.144804
rclavicle 1.2424e-015 -3.18055e-015
rhumerus -31.9956 -25.2878 -74.8356
rradius 21.1781
rwrist 9.65139
rhand -17.7887 22.9766
rfingers 7.12502
rthumb 8.47425 -6.83339
lclavicle 1.2424e-015 -3.18055e-015
lhumerus -28.3137 1.55762 84.1982
lradius 28.5061
lwrist 4.07604
lhand -28.7393 24.7774
lfingers 7.12502
lthumb -2.09989 54.7468
rfemur -11.4139 4.82232 31.904
rtibia 31.8175
rfoot -12.4308 -6.58342
rtoes 11.0335
lfemur -16.2135 3.48658 -14.2478
ltibia 71.457
lfoot -0.201654 -8.42913
ltoes -4.69418
